<?xml version="1.0" encoding="UTF-8" standalone="no" ?>
<!DOCTYPE svg PUBLIC "-//W3C//DTD SVG 1.1//EN" "http://www.w3.org/Graphics/SVG/1.1/DTD/svg11.dtd">
<svg xmlns="http://www.w3.org/2000/svg" xmlns:xlink="http://www.w3.org/1999/xlink" version="1.1" width="1080" height="1080" viewBox="0 0 1080 1080" xml:space="preserve">
<desc>Created with Fabric.js 5.2.4</desc>
<defs>
</defs>
<g transform="matrix(1 0 0 1 540 540)" id="8efcaf15-fb88-4e06-943b-43cfdabe57b3"  >
<rect style="stroke: none; stroke-width: 1; stroke-dasharray: none; stroke-linecap: butt; stroke-dashoffset: 0; stroke-linejoin: miter; stroke-miterlimit: 4; fill: rgb(255,255,255); fill-rule: nonzero; opacity: 1; visibility: hidden;" vector-effect="non-scaling-stroke"  x="-540" y="-540" rx="0" ry="0" width="1080" height="1080" />
</g>
<g transform="matrix(1 0 0 1 540 540)" id="5099953a-466f-49a3-a731-ef6b4d303d49"  >
</g>
<g transform="matrix(0.13 0 0 -0.13 542.37 533.04)" id="path70"  >
<path style="stroke: none; stroke-width: 1; stroke-dasharray: none; stroke-linecap: butt; stroke-dashoffset: 0; stroke-linejoin: miter; stroke-miterlimit: 4; fill: rgb(59,57,61); fill-rule: nonzero; opacity: 1;" vector-effect="non-scaling-stroke"  transform=" translate(-6010.52, -6044.97)" d="M 8876.5 4030.43 C 7938.87 4030.43 7176.03 4787.83 7176.03 5718.799999999999 C 7176.03 6649.779999999999 7938.87 7407.179999999999 8876.5 7407.179999999999 C 9814.14 7407.179999999999 10577 6649.78 10577 5718.799999999999 C 10577 4787.829999999999 9814.14 4030.4299999999994 8876.5 4030.4299999999994 z M 6010.53 7292.06 C 5704.5199999999995 7292.06 5456.45 7506.81 5456.45 7771.71 C 5456.45 8036.61 5704.5199999999995 8251.36 6010.53 8251.36 C 6316.549999999999 8251.36 6564.62 8036.610000000001 6564.62 7771.710000000001 C 6564.62 7506.810000000001 6316.55 7292.060000000001 6010.53 7292.060000000001 z M 3144.56 4030.43 C 2206.93 4030.43 1444.09 4787.83 1444.09 5718.799999999999 C 1444.09 6649.779999999999 2206.93 7407.179999999999 3144.56 7407.179999999999 C 4082.2 7407.179999999999 4845.04 6649.78 4845.04 5718.799999999999 C 4845.04 4787.829999999999 4082.2 4030.4299999999994 3144.56 4030.4299999999994 z M 8876.5 7867.64 C 8525.19 7867.64 8193.52 7783.160000000001 7900.05 7634.360000000001 L 7902.070000000001 7637.410000000001 L 7436.02 7642.090000000001 C 7362.25 8135.220000000001 6752.200000000001 8519.970000000001 6010.530000000001 8519.970000000001 C 5283.300000000001 8519.970000000001 4683.02 8149.960000000001 4590.370000000001 7670.660000000002 L 4080.7800000000007 7675.780000000002 L 4103.370000000001 7643.370000000002 C 3814.290000000001 7786.620000000002 3488.830000000001 7867.640000000002 3144.560000000001 7867.640000000002 C 1954.0700000000008 7867.640000000002 985.5350000000008 6903.690000000002 985.5350000000008 5718.800000000002 C 985.5350000000008 4533.910000000002 1954.0700000000006 3569.970000000002 3144.560000000001 3569.970000000002 C 4050.1600000000008 3569.970000000002 4826.800000000001 4128.010000000002 5146.900000000001 4916.540000000002 L 5533.290000000001 4923.8600000000015 C 5533.250000000001 4926.660000000002 5532.870000000001 4929.370000000002 5532.870000000001 4932.180000000001 C 5532.870000000001 5218.270000000001 5763.840000000001 5450.200000000001 6048.750000000001 5450.200000000001 C 6329.890000000001 5450.200000000001 6558.060000000001 5224.250000000001 6564.060000000001 4943.39 L 6861.280000000002 4949.02 C 7173.020000000001 4143.370000000001 7958.520000000001 3569.9700000000003 8876.500000000002 3569.9700000000003 C 10067.000000000002 3569.9700000000003 11035.500000000002 4533.91 11035.500000000002 5718.8 C 11035.500000000002 6903.6900000000005 10067.000000000002 7867.64 8876.500000000002 7867.64" stroke-linecap="round" />
</g>
</svg>