<svg viewBox="0 0 236.47 128.87" xmlns="http://www.w3.org/2000/svg"><path d="M74.07 0a39.5 39.5 0 0 0-24.12 8.34l-.06-.07-28.56 22.11.08.1A55 55 0 0 0 0 73.88a55 55 0 0 0 55 55 55 55 0 0 0 49.9-32.17 26.5 26.5 0 0 0 13.34 3.67 26.5 26.5 0 0 0 13.34-3.67 55 55 0 0 0 49.9 32.17 55 55 0 0 0 55-55 55 55 0 0 0-21.34-43.48v-.01L186.6 8.27h-.01A39.5 39.5 0 0 0 162.4 0a39.5 39.5 0 0 0-29.94 13.8 26.5 26.5 0 0 0-14.22-4.16 26.5 26.5 0 0 0-14.22 4.15A39.5 39.5 0 0 0 74.07 0zM55 30.37a43.5 43.5 0 0 1 43.5 43.5 43.5 43.5 0 0 1-43.5 43.5 43.5 43.5 0 0 1-43.5-43.5A43.5 43.5 0 0 1 55 30.37zm124.73.17v3.31h3.48v3.48h3.48v-6.45a43.5 43.5 0 0 1 3.48.39v2.58h3.48v3.48h-3.48v3.48h3.48v3.48h-3.48V40.8h-6.96v6.96h-6.96v3.48h3.48v6.96h3.48v-6.96h3.48v6.96h-3.48v3.48h3.48v3.48h-3.48v-3.48h-3.48v3.48h-3.48v3.48h-3.48v6.96h3.48v-3.48h3.48v-3.48h3.48v3.48h-3.48v3.48h3.48v3.48h6.96v3.48h6.96v3.48h-6.96v-3.48h-3.48v3.48h-3.48v3.48h10.44v13.92h3.48v3.48h6.96v-3.48h6.96v-6.96h3.48v-6.96h3.48v-6.96h-3.48v3.48h-3.48v-3.48h-3.48v3.48h-6.96v-6.96h-3.48V75.6H186.7v-6.96h6.96v-3.48h6.96v-3.48h-6.96V58.2h3.48v-6.96h-3.48v3.48h-3.48v-6.96h6.96V33.38a43.5 43.5 0 0 1 3.48 1.63v19.72h19.72a43.5 43.5 0 0 1 1.63 3.48h-10.9v3.48h-3.49v3.48h-3.48v6.96h-3.48v3.48h6.96v-3.48h3.48v-3.48h3.48v6.96h-6.96v3.48h10.44v-6.96h3.48v-3.48h-3.48v-6.96h5a43.5 43.5 0 0 1 1.79 10.44h-3.3v3.48h3.3a43.5 43.5 0 0 1-2.94 13.92h-.37v1.12a43.5 43.5 0 0 1-3.48 6.7v-.86h-3.48v5.33a43.5 43.5 0 0 1-1.33 1.63h-2.15v2.15a43.5 43.5 0 0 1-3.48 2.85v-1.52h-3.48v3.48h.85a43.5 43.5 0 0 1-4.33 2.32v-2.32h-3.48v3.77a43.5 43.5 0 0 1-3.48 1.23v-5h3.48v-3.48h-3.48v-3.48h-6.96v-6.96h3.48v-3.48h-6.96v-3.48h-3.48v3.48h-6.96v6.96h-3.48v-3.48h-3.48v6.96h6.96v3.48h-3.48v3.48h3.48v5.83a43.5 43.5 0 0 1-3.48-.83v-5h-3.48v3.9a43.5 43.5 0 0 1-3.48-1.58V93h-19.71a43.5 43.5 0 0 1-2.7-6.96h5.01v-6.96h10.44v-6.96h3.48v-3.48h3.48v3.48h3.48v-3.48h3.48v-3.48h6.96v-3.48h-10.44v3.48h-10.44v3.48h-3.48v6.96h-10.44v3.48h-2.97a43.5 43.5 0 0 1-.51-5.22 43.5 43.5 0 0 1 .17-1.74h3.31v-3.48h10.44V61.7h-3.48v3.48h-3.48v-6.96h-3.9a43.5 43.5 0 0 1 1.58-3.48h19.72V35.01a43.5 43.5 0 0 1 3.48-1.5V44.3h6.96v-3.48h-3.48v-3.48h3.48v3.48h3.48v3.48h3.48v-6.96h-3.48v-6.45a43.5 43.5 0 0 1 3.48-.34zM151.89 61.7h10.44v-3.5h-10.44zm24.36 0h3.48v-3.5h-3.48zM165.8 72.13v3.48h3.48v-3.48zm3.48 3.48v3.48h3.48v-3.48zm3.48 3.48v3.48h3.48v-3.48zm0 3.48h-3.48v-3.48h-3.48v13.92h3.48v-6.96h3.48zm0 3.48v3.48h6.96v-3.48h-3.48zm6.96 0h3.48v-3.48h-3.48zm-17.4-13.92h-3.48v3.48h3.48zm-6.96 6.96v3.48h-3.48v3.48h-3.48v3.48h6.96v-3.48h3.48v-3.48h3.48v-3.48h-3.48zm3.48 6.96v3.48h3.48v-3.48zM218 79.09v3.48h3.48v-3.48zm-10.44 0h-3.48v3.48h3.48zm0-17.4v-3.48h-3.48v3.48zm-13.92 6.96v3.48h3.48v-3.48zm-17.4-17.4h-3.48v3.48h3.48zm-3.48 3.48h-3.48v3.48h3.48zm-3.48 0v-6.96h-3.48v6.96zm-10.44-17.86v14.38h-14.38a43.5 43.5 0 0 1 2.41-3.48h8.49V39.3a43.5 43.5 0 0 1 3.48-2.42zm45.24 0a43.5 43.5 0 0 1 3.48 2.42v8.48h8.48a43.5 43.5 0 0 1 2.41 3.48H204.1V37.33zM139.92 61.7h1.53v3.48h-2.35a43.5 43.5 0 0 1 .82-3.48zm-21.69.68a11.5 11.5 0 0 1 11.5 11.5 11.5 11.5 0 0 1-11.5 11.5 11.5 11.5 0 0 1-11.5-11.5 11.5 11.5 0 0 1 11.5-11.5zm78.9 27.16h10.44v10.44h-10.44v-6.96zm3.48 3.48v3.48h3.48v-3.48zm-56.14 3.48h14.38v14.38a43.5 43.5 0 0 1-3.48-2.42v-8.48h-8.49a43.5 43.5 0 0 1-2.4-3.48zm35.26 0h3.48v3.48h-3.48v3.48h3.48v3.48h6.96v3.48h-3.48v3.48h-3.48v3.3a43.5 43.5 0 0 1-1.74.18 43.5 43.5 0 0 1-1.74-.17v-3.31h-3.48V99.97h3.48zm0 17.4h3.48v-3.48h-3.48z"/></svg>
